<svg width="52" height="50" viewBox="0 0 52 50" fill="none" xmlns="http://www.w3.org/2000/svg">
<path d="M24.8235 33.1875L7.566 15.7719C7.27791 15.4813 7.11719 15.0952 7.11719 14.6937C7.11719 14.2923 7.27791 13.9062 7.566 13.6156L7.5855 13.5969C7.72516 13.4555 7.89328 13.3429 8.07961 13.266C8.26594 13.1891 8.4666 13.1494 8.66938 13.1494C8.87215 13.1494 9.07281 13.1891 9.25915 13.266C9.44548 13.3429 9.61359 13.4555 9.75325 13.5969L26.0033 29.9969L42.2468 13.5969C42.3864 13.4555 42.5545 13.3429 42.7409 13.266C42.9272 13.1891 43.1278 13.1494 43.3306 13.1494C43.5334 13.1494 43.7341 13.1891 43.9204 13.266C44.1067 13.3429 44.2748 13.4555 44.4145 13.5969L44.434 13.6156C44.7221 13.9062 44.8828 14.2923 44.8828 14.6937C44.8828 15.0952 44.7221 15.4813 44.434 15.7719L27.1765 33.1875C27.0247 33.3407 26.8422 33.4626 26.64 33.5459C26.4377 33.6292 26.22 33.6722 26 33.6722C25.78 33.6722 25.5623 33.6292 25.36 33.5459C25.1578 33.4626 24.9753 33.3407 24.8235 33.1875Z" fill="white"/>
</svg>
