<svg width="24" height="24" viewBox="0 0 24 24" fill="none" xmlns="http://www.w3.org/2000/svg">
<path d="M20.9999 17H8.99989C8.74501 17.0003 8.49986 17.0979 8.31452 17.2728C8.12918 17.4478 8.01765 17.687 8.00272 17.9414C7.98778 18.1958 8.07056 18.4464 8.23415 18.6418C8.39774 18.8373 8.62979 18.9629 8.88289 18.993L8.99989 19H20.9999C21.2548 18.9997 21.4999 18.9021 21.6853 18.7272C21.8706 18.5522 21.9821 18.313 21.9971 18.0586C22.012 17.8042 21.9292 17.5536 21.7656 17.3582C21.602 17.1627 21.37 17.0371 21.1169 17.007L20.9999 17ZM20.9999 11H2.99989C2.74501 11.0003 2.49986 11.0979 2.31452 11.2728C2.12918 11.4478 2.01765 11.687 2.00272 11.9414C1.98778 12.1958 2.07056 12.4464 2.23415 12.6418C2.39774 12.8373 2.62979 12.9629 2.88289 12.993L2.99989 13H20.9999C21.2548 12.9997 21.4999 12.9021 21.6853 12.7272C21.8706 12.5522 21.9821 12.313 21.9971 12.0586C22.012 11.8042 21.9292 11.5536 21.7656 11.3582C21.602 11.1627 21.37 11.0371 21.1169 11.007L20.9999 11ZM20.9999 5H5.99989C5.74501 5.00028 5.49986 5.09788 5.31452 5.27285C5.12918 5.44782 5.01765 5.68695 5.00272 5.94139C4.98778 6.19584 5.07056 6.44638 5.23415 6.64183C5.39774 6.83729 5.62979 6.9629 5.88289 6.993L5.99989 7H20.9999C21.2548 6.99972 21.4999 6.90212 21.6853 6.72715C21.8706 6.55218 21.9821 6.31305 21.9971 6.05861C22.012 5.80416 21.9292 5.55362 21.7656 5.35817C21.602 5.16271 21.37 5.0371 21.1169 5.007L20.9999 5Z" fill="white"/>
</svg>
